<svg width="60" height="60" viewBox="0 0 60 60" fill="none" xmlns="http://www.w3.org/2000/svg">
<circle cx="30" cy="30" r="30" fill="white"/>
<g clip-path="url(#clip0_154_131)">
<path d="M42.424 28.8616C42.4869 35.6585 48.3635 37.9204 48.4286 37.9492C48.3789 38.1088 47.4896 41.1726 45.3325 44.3374C43.4678 47.0734 41.5325 49.7995 38.4838 49.8559C35.4882 49.9114 34.5249 48.0726 31.1001 48.0726C27.6762 48.0726 26.606 49.7995 23.7703 49.9114C20.8275 50.0231 18.5867 46.9526 16.7065 44.2266C12.8645 38.6504 9.92846 28.4695 13.8708 21.5972C15.8293 18.1844 19.3293 16.0233 23.1282 15.9679C26.0179 15.9125 28.7454 17.9196 30.5119 17.9196C32.2773 17.9196 35.5919 15.5059 39.0763 15.8604C40.535 15.9214 44.6297 16.452 47.259 20.3156C47.0471 20.4475 42.3732 23.1791 42.424 28.8616ZM36.7941 12.1712C38.3564 10.2727 39.4079 7.62973 39.1211 5C36.8691 5.09086 34.1459 6.50654 32.5306 8.40405C31.083 10.0844 29.8152 12.7739 30.1573 15.3515C32.6674 15.5465 35.2317 14.071 36.7941 12.1712Z" fill="black"/>
</g>
<defs>
<clipPath id="clip0_154_131">
<rect width="36.4286" height="45" fill="white" transform="translate(12 5)"/>
</clipPath>
</defs>
</svg>
