<svg width="60" height="60" viewBox="0 0 60 60" fill="none" xmlns="http://www.w3.org/2000/svg">
<circle cx="30" cy="30" r="30" fill="white"/>
<g clip-path="url(#clip0_154_135)">
<path d="M30.3184 7C17.4417 7 7 17.3152 7 30.0402C7 40.22 13.6814 48.8564 22.9465 51.903C24.1119 52.1162 24.5398 51.4032 24.5398 50.7946C24.5398 50.2452 24.5181 48.4302 24.5081 46.505C18.0209 47.8987 16.652 43.7865 16.652 43.7865C15.5913 41.1234 14.0629 40.4153 14.0629 40.4153C11.9473 38.9853 14.2224 39.0147 14.2224 39.0147C16.564 39.1772 17.7969 41.389 17.7969 41.389C19.8767 44.9113 23.252 43.893 24.5826 43.3043C24.7919 41.8152 25.3962 40.7987 26.0631 40.2234C20.8838 39.6408 15.4391 37.6652 15.4391 28.8368C15.4391 26.3214 16.3501 24.266 17.8417 22.6525C17.5996 22.0722 16.8015 19.7288 18.0676 16.5552C18.0676 16.5552 20.0257 15.936 24.4818 18.9169C26.3419 18.4064 28.3367 18.1504 30.3184 18.1416C32.3001 18.1504 34.2964 18.4064 36.1599 18.9169C40.6106 15.936 42.566 16.5552 42.566 16.5552C43.8353 19.7288 43.0368 22.0722 42.7946 22.6525C44.2898 24.266 45.1945 26.3214 45.1945 28.8368C45.1945 37.6862 39.7395 39.6347 34.547 40.2051C35.3834 40.9201 36.1287 42.3222 36.1287 44.4718C36.1287 47.5546 36.1016 50.0357 36.1016 50.7946C36.1016 51.4077 36.5214 52.1262 37.7034 51.8999C46.9634 48.8499 53.6364 40.2165 53.6364 30.0402C53.6364 17.3152 43.1962 7 30.3184 7ZM15.7335 39.8212C15.6821 39.9357 15.4999 39.97 15.3338 39.8914C15.1647 39.8163 15.0697 39.6602 15.1245 39.5454C15.1747 39.4275 15.3574 39.3947 15.5261 39.4737C15.6956 39.5488 15.7922 39.7064 15.7335 39.8212ZM16.8805 40.8325C16.7693 40.9344 16.5519 40.887 16.4044 40.726C16.2519 40.5654 16.2233 40.3506 16.336 40.2472C16.4507 40.1453 16.6616 40.193 16.8145 40.3537C16.967 40.5162 16.9967 40.7295 16.8805 40.8325ZM17.6674 42.1263C17.5245 42.2244 17.2909 42.1324 17.1465 41.9276C17.0036 41.7227 17.0036 41.477 17.1496 41.3785C17.2944 41.2801 17.5245 41.3686 17.6709 41.572C17.8133 41.7803 17.8133 42.026 17.6674 42.1263ZM18.9982 43.6248C18.8704 43.7641 18.5981 43.7267 18.3989 43.5367C18.195 43.3509 18.1382 43.0872 18.2664 42.948C18.3958 42.8083 18.6696 42.8476 18.8704 43.0361C19.0727 43.2215 19.1345 43.4871 18.9982 43.6248ZM20.7181 44.1307C20.6617 44.3111 20.3995 44.3932 20.1354 44.3165C19.8717 44.2375 19.6991 44.0261 19.7524 43.8438C19.8072 43.6622 20.0705 43.5767 20.3366 43.6587C20.5999 43.7373 20.7729 43.9472 20.7181 44.1307ZM22.6755 44.3453C22.682 44.5353 22.4581 44.6928 22.1808 44.6963C21.902 44.7024 21.6765 44.5486 21.6734 44.3617C21.6734 44.1697 21.8924 44.0137 22.1712 44.0091C22.4484 44.0038 22.6755 44.1564 22.6755 44.3453ZM24.5983 44.2724C24.6315 44.4579 24.4389 44.6482 24.1635 44.699C23.8928 44.7478 23.6422 44.6334 23.6079 44.4495C23.5743 44.2595 23.7704 44.0691 24.0407 44.0198C24.3164 43.9725 24.5632 44.0839 24.5983 44.2724Z" fill="#161614"/>
</g>
<defs>
<clipPath id="clip0_154_135">
<rect width="46.6364" height="45" fill="white" transform="translate(7 7)"/>
</clipPath>
</defs>
</svg>
