<svg width="60" height="60" viewBox="0 0 60 60" fill="none" xmlns="http://www.w3.org/2000/svg">
<circle cx="30" cy="30" r="30" fill="white"/>
<g clip-path="url(#clip0_154_133)">
<path d="M49.0653 30.3742C49.0653 28.7354 48.9323 27.5395 48.6446 26.2994H29.9313V33.696H40.9155C40.6942 35.5342 39.4983 38.3024 36.8407 40.1626L36.8035 40.4102L42.7203 44.9939L43.1302 45.0348C46.8949 41.5578 49.0653 36.4421 49.0653 30.3742Z" fill="#4285F4"/>
<path d="M29.9313 49.8626C35.3127 49.8626 39.8304 48.0908 43.1303 45.0348L36.8408 40.1626C35.1577 41.3363 32.8988 42.1557 29.9313 42.1557C24.6606 42.1557 20.1872 38.6789 18.5925 33.8733L18.3588 33.8931L12.2064 38.6545L12.126 38.8782C15.4035 45.389 22.1359 49.8626 29.9313 49.8626Z" fill="#34A853"/>
<path d="M18.5925 33.8733C18.1718 32.6331 17.9282 31.3043 17.9282 29.9313C17.9282 28.5582 18.1718 27.2295 18.5704 25.9893L18.5592 25.7252L12.3298 20.8873L12.126 20.9843C10.7751 23.6861 10 26.7202 10 29.9313C10 33.1424 10.7751 36.1763 12.126 38.8782L18.5925 33.8733Z" fill="#FBBC05"/>
<path d="M29.9313 17.7067C33.6739 17.7067 36.1985 19.3234 37.638 20.6744L43.2631 15.1821C39.8084 11.971 35.3127 10 29.9313 10C22.1359 10 15.4035 14.4734 12.126 20.9843L18.5704 25.9893C20.1872 21.1837 24.6606 17.7067 29.9313 17.7067Z" fill="#EB4335"/>
</g>
<defs>
<clipPath id="clip0_154_133">
<rect width="39.084" height="40" fill="white" transform="translate(10 10)"/>
</clipPath>
</defs>
</svg>
