<svg width="60" height="60" viewBox="0 0 60 60" fill="none" xmlns="http://www.w3.org/2000/svg">
<circle cx="30" cy="30" r="30" fill="white"/>
<g clip-path="url(#clip0_154_134)">
<path d="M30.0103 10.303C21.7855 10.303 19.38 10.3115 18.9124 10.3503C17.2246 10.4906 16.1743 10.7564 15.03 11.3261C14.1482 11.7639 13.4528 12.2715 12.7664 12.983C11.5164 14.2806 10.7588 15.877 10.4846 17.7746C10.3512 18.6958 10.3124 18.8836 10.3046 23.5891C10.3015 25.1576 10.3046 27.2218 10.3046 29.9906C10.3046 38.2088 10.3137 40.6118 10.3531 41.0785C10.4894 42.7209 10.747 43.7543 11.2924 44.8846C12.3349 47.0482 14.3258 48.6724 16.6712 49.2785C17.4834 49.4876 18.3803 49.6027 19.5318 49.6573C20.0197 49.6785 24.9924 49.6936 29.9682 49.6936C34.944 49.6936 39.9197 49.6876 40.3955 49.6633C41.7288 49.6006 42.5031 49.4967 43.3591 49.2755C45.7197 48.6664 47.6743 47.0664 48.7379 44.8724C49.2728 43.7694 49.544 42.6967 49.6667 41.14C49.6934 40.8006 49.7046 35.3894 49.7046 29.9855C49.7046 24.5806 49.6925 19.1794 49.6658 18.84C49.5415 17.2582 49.2703 16.1946 48.7182 15.0703C48.2652 14.15 47.7621 13.4627 47.0318 12.76C45.7285 11.5152 44.1346 10.7576 42.2352 10.4836C41.3149 10.3506 41.1315 10.3112 36.4224 10.303H30.0103Z" fill="url(#paint0_radial_154_134)"/>
<path d="M30.0103 10.303C21.7855 10.303 19.38 10.3115 18.9124 10.3503C17.2246 10.4906 16.1743 10.7564 15.03 11.3261C14.1482 11.7639 13.4528 12.2715 12.7664 12.983C11.5164 14.2806 10.7588 15.877 10.4846 17.7746C10.3512 18.6958 10.3124 18.8836 10.3046 23.5891C10.3015 25.1576 10.3046 27.2218 10.3046 29.9906C10.3046 38.2088 10.3137 40.6118 10.3531 41.0785C10.4894 42.7209 10.747 43.7543 11.2924 44.8846C12.3349 47.0482 14.3258 48.6724 16.6712 49.2785C17.4834 49.4876 18.3803 49.6027 19.5318 49.6573C20.0197 49.6785 24.9924 49.6936 29.9682 49.6936C34.944 49.6936 39.9197 49.6876 40.3955 49.6633C41.7288 49.6006 42.5031 49.4967 43.3591 49.2755C45.7197 48.6664 47.6743 47.0664 48.7379 44.8724C49.2728 43.7694 49.544 42.6967 49.6667 41.14C49.6934 40.8006 49.7046 35.3894 49.7046 29.9855C49.7046 24.5806 49.6925 19.1794 49.6658 18.84C49.5415 17.2582 49.2703 16.1946 48.7182 15.0703C48.2652 14.15 47.7621 13.4627 47.0318 12.76C45.7285 11.5152 44.1346 10.7576 42.2352 10.4836C41.3149 10.3506 41.1315 10.3112 36.4224 10.303H30.0103Z" fill="url(#paint1_radial_154_134)"/>
<path d="M30.0012 15.4546C26.0509 15.4546 25.5551 15.4718 24.0036 15.5424C22.4551 15.6133 21.3982 15.8585 20.4733 16.2182C19.5167 16.5897 18.7051 17.0867 17.8967 17.8955C17.0876 18.704 16.5906 19.5155 16.2179 20.4718C15.8573 21.397 15.6118 22.4543 15.5421 24.0021C15.4727 25.5536 15.4545 26.0497 15.4545 30C15.4545 33.9503 15.4721 34.4446 15.5424 35.9961C15.6136 37.5446 15.8588 38.6015 16.2182 39.5264C16.59 40.483 17.087 41.2946 17.8957 42.103C18.7039 42.9121 19.5154 43.4103 20.4715 43.7818C21.397 44.1415 22.4542 44.3867 24.0024 44.4576C25.5539 44.5282 26.0494 44.5455 29.9994 44.5455C33.95 44.5455 34.4442 44.5282 35.9957 44.4576C37.5442 44.3867 38.6024 44.1415 39.5279 43.7818C40.4842 43.4103 41.2945 42.9121 42.1027 42.103C42.9118 41.2946 43.4088 40.483 43.7815 39.5267C44.1391 38.6015 44.3845 37.5443 44.4573 35.9964C44.527 34.4449 44.5451 33.9503 44.5451 30C44.5451 26.0497 44.527 25.554 44.4573 24.0024C44.3845 22.454 44.1391 21.397 43.7815 20.4721C43.4088 19.5155 42.9118 18.704 42.1027 17.8955C41.2936 17.0864 40.4845 16.5894 39.527 16.2182C38.5997 15.8585 37.5421 15.6133 35.9936 15.5424C34.4421 15.4718 33.9482 15.4546 29.9967 15.4546H30.0012ZM28.6963 18.0758C29.0836 18.0752 29.5157 18.0758 30.0012 18.0758C33.8848 18.0758 34.3451 18.0897 35.8788 18.1594C37.297 18.2243 38.0667 18.4612 38.5794 18.6603C39.2582 18.924 39.7421 19.2391 40.2509 19.7482C40.76 20.2573 41.0751 20.7421 41.3394 21.4209C41.5385 21.933 41.7757 22.7027 41.8403 24.1209C41.91 25.6543 41.9251 26.1149 41.9251 29.9967C41.9251 33.8785 41.91 34.3391 41.8403 35.8724C41.7754 37.2906 41.5385 38.0603 41.3394 38.5724C41.0757 39.2512 40.76 39.7346 40.2509 40.2433C39.7418 40.7524 39.2585 41.0676 38.5794 41.3312C38.0673 41.5312 37.297 41.7676 35.8788 41.8324C34.3454 41.9021 33.8848 41.9173 30.0012 41.9173C26.1173 41.9173 25.657 41.9021 24.1236 41.8324C22.7054 41.767 21.9357 41.53 21.4227 41.3309C20.7439 41.0673 20.2591 40.7521 19.75 40.243C19.2409 39.734 18.9257 39.2503 18.6615 38.5712C18.4624 38.0591 18.2251 37.2894 18.1606 35.8712C18.0909 34.3379 18.077 33.8773 18.077 29.993C18.077 26.1088 18.0909 25.6506 18.1606 24.1173C18.2254 22.6991 18.4624 21.9294 18.6615 21.4167C18.9251 20.7379 19.2409 20.253 19.75 19.744C20.2591 19.2349 20.7439 18.9197 21.4227 18.6555C21.9354 18.4555 22.7054 18.2191 24.1236 18.154C25.4654 18.0933 25.9854 18.0752 28.6963 18.0721V18.0758ZM37.7654 20.4909C36.8018 20.4909 36.02 21.2718 36.02 22.2358C36.02 23.1994 36.8018 23.9812 37.7654 23.9812C38.7291 23.9812 39.5109 23.1994 39.5109 22.2358C39.5109 21.2721 38.7291 20.4903 37.7654 20.4903V20.4909ZM30.0012 22.5303C25.876 22.5303 22.5315 25.8749 22.5315 30C22.5315 34.1252 25.876 37.4682 30.0012 37.4682C34.1263 37.4682 37.4697 34.1252 37.4697 30C37.4697 25.8749 34.1263 22.5303 30.0012 22.5303ZM30.0012 25.1515C32.6788 25.1515 34.8497 27.3221 34.8497 30C34.8497 32.6776 32.6788 34.8485 30.0012 34.8485C27.3233 34.8485 25.1527 32.6776 25.1527 30C25.1527 27.3221 27.3233 25.1515 30.0012 25.1515Z" fill="white"/>
<g clip-path="url(#clip1_154_134)">
<path d="M76.0011 -69C5.31728 -69 -52 -11.6933 -52 59.0011C-52 115.555 -15.3238 163.536 35.5349 180.461C41.932 181.646 44.2806 177.684 44.2806 174.303C44.2806 171.251 44.1619 161.168 44.1068 150.472C8.49675 158.215 0.98262 135.37 0.98262 135.37C-4.84004 120.575 -13.2296 116.641 -13.2296 116.641C-24.8431 108.696 -12.3542 108.859 -12.3542 108.859C0.499344 109.762 7.26736 122.05 7.26736 122.05C18.6838 141.618 37.2116 135.961 44.5159 132.69C45.6647 124.418 48.982 118.771 52.6426 115.574C24.2118 112.338 -5.67518 101.362 -5.67518 52.3157C-5.67518 38.3409 -0.674942 26.9224 7.51324 17.9584C6.18423 14.7344 1.80292 1.71556 8.75323 -15.9156C8.75323 -15.9156 19.5019 -19.3558 43.9626 -2.79504C54.173 -5.63113 65.123 -7.05341 76.0011 -7.10216C86.8791 -7.05341 97.8376 -5.63113 108.067 -2.79504C132.498 -19.3558 143.232 -15.9156 143.232 -15.9156C150.199 1.71556 145.816 14.7344 144.487 17.9584C152.694 26.9224 157.66 38.3409 157.66 52.3157C157.66 101.479 127.716 112.304 99.2133 115.473C103.804 119.445 107.895 127.235 107.895 139.177C107.895 156.303 107.747 170.087 107.747 174.303C107.747 177.71 110.051 181.701 116.539 180.444C167.37 163.5 204 115.536 204 59.0011C204 -11.6933 146.691 -69 76.0011 -69ZM-4.05944 113.34C-4.34135 113.976 -5.34183 114.167 -6.25327 113.73C-7.18168 113.313 -7.70311 112.446 -7.40212 111.808C-7.12656 111.153 -6.12397 110.97 -5.19769 111.409C-4.26717 111.827 -3.73726 112.702 -4.05944 113.34ZM2.23679 118.958C1.62633 119.524 0.432972 119.261 -0.376732 118.367C-1.21399 117.475 -1.37084 116.281 -0.751907 115.707C-0.122372 115.141 1.03495 115.406 1.87433 116.298C2.71159 117.201 2.8748 118.386 2.23679 118.958ZM6.55624 126.146C5.77197 126.691 4.48959 126.18 3.69684 125.042C2.91257 123.904 2.91257 122.539 3.7138 121.992C4.50866 121.445 5.77197 121.937 6.57532 123.066C7.35747 124.224 7.35746 125.589 6.55624 126.146ZM13.8614 134.471C13.1598 135.245 11.6654 135.037 10.5717 133.982C9.4525 132.949 9.14091 131.485 9.84464 130.711C10.5547 129.935 12.0575 130.153 13.1598 131.201C14.2705 132.231 14.6096 133.706 13.8614 134.471ZM23.3025 137.282C22.993 138.284 21.5538 138.74 20.104 138.314C18.6563 137.875 17.7088 136.701 18.0013 135.688C18.3023 134.679 19.7479 134.204 21.2083 134.66C22.6539 135.096 23.6035 136.262 23.3025 137.282ZM34.0469 138.474C34.083 139.529 32.8536 140.405 31.3317 140.424C29.8013 140.458 28.5634 139.603 28.5465 138.565C28.5465 137.499 29.7483 136.632 31.2787 136.606C32.8006 136.577 34.0469 137.424 34.0469 138.474ZM44.6021 138.069C44.7844 139.099 43.7267 140.157 42.2154 140.439C40.7296 140.71 39.3539 140.074 39.1653 139.053C38.9809 137.997 40.0576 136.939 41.5414 136.666C43.0548 136.403 44.4093 137.022 44.6021 138.069Z" fill="#161614"/>
</g>
</g>
<defs>
<radialGradient id="paint0_radial_154_134" cx="0" cy="0" r="1" gradientUnits="userSpaceOnUse" gradientTransform="translate(20.7693 52.7275) rotate(-90) scale(39.039 36.3192)">
<stop stop-color="#FFDD55"/>
<stop offset="0.1" stop-color="#FFDD55"/>
<stop offset="0.5" stop-color="#FF543E"/>
<stop offset="1" stop-color="#C837AB"/>
</radialGradient>
<radialGradient id="paint1_radial_154_134" cx="0" cy="0" r="1" gradientUnits="userSpaceOnUse" gradientTransform="translate(3.70329 13.1407) rotate(78.6776) scale(17.4508 71.951)">
<stop stop-color="#3771C8"/>
<stop offset="0.128" stop-color="#3771C8"/>
<stop offset="1" stop-color="#6600FF" stop-opacity="0"/>
</radialGradient>
<clipPath id="clip0_154_134">
<rect width="40.0012" height="40" fill="white" transform="translate(10 10)"/>
</clipPath>
<clipPath id="clip1_154_134">
<rect width="256" height="250" fill="white" transform="translate(-52 -69)"/>
</clipPath>
</defs>
</svg>
