<svg width="60" height="60" viewBox="0 0 60 60" fill="none" xmlns="http://www.w3.org/2000/svg">
<circle cx="30" cy="30" r="30" fill="white"/>
<g clip-path="url(#clip0_154_132)">
<path d="M52 48.4844C52 50.4261 50.4261 52 48.4844 52H10.5156C8.57395 52 7 50.4261 7 48.4844V10.5156C7 8.57395 8.57395 7 10.5156 7H48.4844C50.4261 7 52 8.57395 52 10.5156V48.4844Z" fill="#FFE812"/>
<path d="M29.5 13.3281C19.4035 13.3281 11.2188 19.7816 11.2188 27.7422C11.2188 32.8889 14.6405 37.4049 19.7877 39.9549C19.5077 40.9207 17.9883 46.1678 17.9278 46.58C17.9278 46.58 17.8914 46.8897 18.092 47.0078C18.2925 47.1259 18.5284 47.0342 18.5284 47.0342C19.1036 46.9538 25.1981 42.6729 26.253 41.9295C27.3068 42.0787 28.3919 42.1562 29.5 42.1562C39.5965 42.1562 47.7812 35.703 47.7812 27.7422C47.7812 19.7816 39.5965 13.3281 29.5 13.3281Z" fill="black"/>
<path d="M19.3926 32.7739C18.8109 32.7739 18.3379 32.3222 18.3379 31.7667V25.501H16.6922C16.1215 25.501 15.6572 25.0376 15.6572 24.4683C15.6572 23.8989 16.1216 23.4355 16.6922 23.4355H22.0929C22.6637 23.4355 23.1279 23.8989 23.1279 24.4683C23.1279 25.0376 22.6635 25.501 22.0929 25.501H20.4473V31.7667C20.4473 32.3222 19.9742 32.7739 19.3926 32.7739ZM28.6408 32.7602C28.201 32.7602 27.8645 32.5816 27.7631 32.2944L27.2409 30.9272L24.0248 30.927L23.5022 32.2951C23.4011 32.5818 23.0648 32.7602 22.625 32.7602C22.3937 32.7605 22.165 32.7108 21.9546 32.6147C21.6638 32.4805 21.3844 32.1118 21.7046 31.117L24.2274 24.4767C24.4052 23.9717 24.945 23.4514 25.6319 23.4357C26.3208 23.4512 26.8606 23.9717 27.0387 24.4778L29.5605 31.1151C29.8814 32.1121 29.602 32.4811 29.3112 32.6148C29.1007 32.7108 28.8721 32.7604 28.6408 32.7602ZM26.6863 29.059L25.6328 26.0663L24.5794 29.059H26.6863ZM31.2578 32.6201C30.7004 32.6201 30.2471 32.1863 30.2471 31.6533V24.4902C30.2471 23.9086 30.7301 23.4355 31.3237 23.4355C31.9173 23.4355 32.4004 23.9086 32.4004 24.4902V30.6865H34.6416C35.199 30.6865 35.6523 31.1204 35.6523 31.6533C35.6523 32.1863 35.199 32.6201 34.6416 32.6201H31.2578ZM37.1173 32.7602C36.5356 32.7602 36.0626 32.2872 36.0626 31.7055V24.4902C36.0626 23.9086 36.5356 23.4355 37.1173 23.4355C37.699 23.4355 38.172 23.9086 38.172 24.4902V26.7571L41.1146 23.8145C41.2659 23.6632 41.4739 23.5799 41.6996 23.5799C41.9629 23.5799 42.2273 23.6934 42.4254 23.8913C42.6101 24.0759 42.7203 24.3134 42.7354 24.56C42.7507 24.8088 42.6679 25.0367 42.5027 25.2021L40.0993 27.6053L42.6954 31.0446C42.7792 31.1549 42.8403 31.2808 42.875 31.4149C42.9098 31.5491 42.9175 31.6888 42.8979 31.8259C42.8791 31.9632 42.8332 32.0953 42.763 32.2147C42.6927 32.3341 42.5995 32.4384 42.4887 32.5215C42.3063 32.6601 42.0833 32.7349 41.8543 32.7344C41.6908 32.7351 41.5295 32.6976 41.3832 32.6248C41.2369 32.552 41.1097 32.446 41.0117 32.3151L38.5383 29.0379L38.1723 29.4038V31.705C38.172 31.9847 38.0608 32.2529 37.863 32.4507C37.6652 32.6485 37.397 32.7598 37.1173 32.7602Z" fill="#FFE812"/>
</g>
<defs>
<clipPath id="clip0_154_132">
<rect x="7" y="7" width="45" height="45" rx="22.5" fill="white"/>
</clipPath>
</defs>
</svg>
